<?xml version="1.0" encoding="utf-8"?>
<!-- Generator: Adobe Illustrator 27.5.0, SVG Export Plug-In . SVG Version: 6.00 Build 0)  -->
<svg version="1.1" id="Layer_1" xmlns="http://www.w3.org/2000/svg" xmlns:xlink="http://www.w3.org/1999/xlink" x="0px" y="0px"
	 viewBox="0 0 156.811 200" style="enable-background:new 0 0 156.811 200;" xml:space="preserve">
<g>
	<g>
		<path style="fill:#72B5E8;" d="M51.002,127.176l-21.296-12.295c-5.882-3.396-5.145-9.328,1.648-13.25l17.734-10.239
			c6.792-3.922,17.067-4.347,22.95-0.951l21.296,12.295c5.882,3.396,5.145,9.328-1.648,13.25l-17.734,10.239
			C67.159,130.146,56.884,130.572,51.002,127.176z"/>
		<path style="fill:#72B5E8;" d="M90.907,148.817l-21.296-12.295c-5.882-3.396-5.145-9.328,1.648-13.25l17.734-10.239
			c6.792-3.921,17.067-4.347,22.95-0.951l21.295,12.295c5.882,3.396,5.145,9.328-1.648,13.25l-17.734,10.239
			C107.064,151.787,96.789,152.213,90.907,148.817z"/>
		<path style="fill:#72B5E8;" d="M44.868,172.707l-21.295-12.295c-5.882-3.396-5.145-9.328,1.648-13.25l17.734-10.239
			c6.792-3.921,17.067-4.347,22.95-0.951L87.2,148.267c5.882,3.396,5.145,9.328-1.648,13.25l-17.734,10.239
			C61.025,175.678,50.75,176.103,44.868,172.707z"/>
		<g>
			<path style="fill:#72B5E8;" d="M51.002,116.495l-21.296-12.295c-5.882-3.396-5.145-9.328,1.648-13.25l17.734-10.239
				c6.792-3.922,17.067-4.347,22.95-0.951l21.296,12.295c5.882,3.396,5.145,9.328-1.648,13.25l-17.734,10.239
				C67.159,119.466,56.884,119.892,51.002,116.495z"/>
			<g>
				<path style="fill:#72B5E8;" d="M25.764,98.081h-0.011v0.274C25.754,98.264,25.758,98.173,25.764,98.081z"/>
				<path style="fill:#2672AB;" d="M91.686,105.305l-17.734,10.239c-6.792,3.922-17.067,4.348-22.95,0.951l-21.296-12.295
					c-2.531-1.461-3.828-3.392-3.953-5.43v6.761c-0.162,2.294,1.132,4.507,3.953,6.135l21.296,12.295
					c5.882,3.396,16.157,2.97,22.95-0.951l17.734-10.239c3.51-2.027,5.399-4.59,5.597-7.064l0.004-0.051
					c0.018-0.254,0.018-0.506,0-0.757v-6.819C97.16,100.604,95.272,103.234,91.686,105.305z"/>
			</g>
			<g>
				<path style="fill:#72B5E8;" d="M25.764,98.081h-0.011v0.274C25.754,98.264,25.758,98.173,25.764,98.081z"/>
				<path style="fill:#2672AB;" d="M51.002,116.495l-21.296-12.295c-2.531-1.461-3.828-3.392-3.953-5.43v6.761
					c-0.162,2.294,1.132,4.507,3.953,6.135l21.296,12.295V116.495z"/>
			</g>
			<path style="fill:#D1EBFF;" d="M91.686,104.372l-17.734,10.239c-6.792,3.922-17.067,4.347-22.95,0.951l-21.296-12.295
				c-2.477-1.43-3.766-3.312-3.937-5.302c-0.206,2.329,1.075,4.583,3.937,6.235l21.296,12.295c5.882,3.396,16.157,2.97,22.95-0.951
				l17.734-10.239c3.932-2.27,5.82-5.212,5.585-7.948C97.052,99.815,95.173,102.358,91.686,104.372z"/>
		</g>
		<g>
			<path style="fill:#72B5E8;" d="M51.002,105.981L29.706,93.686c-5.882-3.396-5.145-9.328,1.648-13.25l17.734-10.239
				c6.792-3.922,17.067-4.348,22.95-0.951l21.296,12.295c5.882,3.396,5.145,9.328-1.648,13.25L73.951,105.03
				C67.159,108.951,56.884,109.377,51.002,105.981z"/>
			<g>
				<path style="fill:#72B5E8;" d="M25.764,87.566h-0.011v0.275C25.754,87.75,25.758,87.658,25.764,87.566z"/>
				<path style="fill:#2672AB;" d="M91.686,94.791L73.951,105.03c-6.792,3.922-17.067,4.347-22.95,0.951L29.706,93.686
					c-2.531-1.461-3.828-3.392-3.953-5.43v6.761c-0.162,2.294,1.132,4.507,3.953,6.135l21.296,12.295
					c5.882,3.396,16.157,2.97,22.95-0.951l17.734-10.239c3.51-2.027,5.399-4.59,5.597-7.064l0.004-0.051
					c0.018-0.253,0.018-0.506,0-0.757v-6.819C97.16,90.089,95.272,92.72,91.686,94.791z"/>
			</g>
			<g>
				<path style="fill:#72B5E8;" d="M25.764,87.566h-0.011v0.275C25.754,87.75,25.758,87.658,25.764,87.566z"/>
				<path style="fill:#2672AB;" d="M51.002,105.981L29.706,93.686c-2.531-1.461-3.828-3.392-3.953-5.43v6.761
					c-0.162,2.294,1.132,4.507,3.953,6.135l21.296,12.295V105.981z"/>
			</g>
			<path style="fill:#D1EBFF;" d="M91.686,93.858l-17.734,10.239c-6.792,3.922-17.067,4.347-22.95,0.951L29.706,92.753
				c-2.477-1.43-3.766-3.311-3.937-5.302c-0.206,2.329,1.075,4.583,3.937,6.235l21.296,12.295c5.882,3.396,16.157,2.97,22.95-0.951
				l17.734-10.239c3.932-2.27,5.82-5.213,5.585-7.948C97.052,89.301,95.173,91.844,91.686,93.858z"/>
		</g>
		<g>
			<path style="fill:#72B5E8;" d="M51.002,95.405L29.706,83.11c-5.882-3.396-5.145-9.328,1.648-13.25l17.734-10.239
				c6.792-3.922,17.067-4.348,22.95-0.951l21.296,12.295c5.882,3.396,5.145,9.328-1.648,13.25L73.951,94.453
				C67.159,98.375,56.884,98.801,51.002,95.405z"/>
			<g>
				<path style="fill:#72B5E8;" d="M25.764,76.99h-0.011v0.275C25.754,77.173,25.758,77.082,25.764,76.99z"/>
				<path style="fill:#2672AB;" d="M91.686,84.215L73.951,94.453c-6.792,3.922-17.067,4.348-22.95,0.951L29.706,83.11
					c-2.531-1.461-3.828-3.392-3.953-5.43v6.761c-0.162,2.294,1.132,4.507,3.953,6.135l21.296,12.295
					c5.882,3.396,16.157,2.97,22.95-0.951l17.734-10.239c3.51-2.027,5.399-4.59,5.597-7.064l0.004-0.051
					c0.018-0.253,0.018-0.506,0-0.757V76.99C97.16,79.513,95.272,82.144,91.686,84.215z"/>
			</g>
			<g>
				<path style="fill:#72B5E8;" d="M25.764,76.99h-0.011v0.275C25.754,77.173,25.758,77.082,25.764,76.99z"/>
				<path style="fill:#2672AB;" d="M51.002,95.405L29.706,83.11c-2.531-1.461-3.828-3.392-3.953-5.43v6.761
					c-0.162,2.294,1.132,4.507,3.953,6.135l21.296,12.295V95.405z"/>
			</g>
			<path style="fill:#D1EBFF;" d="M91.686,83.281L73.951,93.52c-6.792,3.922-17.067,4.347-22.95,0.951L29.706,82.176
				c-2.477-1.43-3.766-3.311-3.937-5.302c-0.206,2.329,1.075,4.583,3.937,6.235l21.296,12.295c5.882,3.396,16.157,2.97,22.95-0.951
				l17.734-10.239c3.932-2.27,5.82-5.213,5.585-7.948C97.052,78.725,95.173,81.268,91.686,83.281z"/>
		</g>
		<g>
			<path style="fill:#72B5E8;" d="M51.002,85.139L29.706,72.844c-5.882-3.396-5.145-9.328,1.648-13.25l17.734-10.239
				c6.792-3.922,17.067-4.348,22.95-0.951l21.296,12.295c5.882,3.396,5.145,9.328-1.648,13.25L73.951,84.188
				C67.159,88.109,56.884,88.535,51.002,85.139z"/>
			<g>
				<path style="fill:#72B5E8;" d="M25.764,66.725h-0.011v0.274C25.754,66.908,25.758,66.816,25.764,66.725z"/>
				<path style="fill:#2672AB;" d="M91.686,73.949L73.951,84.188c-6.792,3.921-17.067,4.347-22.95,0.951L29.706,72.844
					c-2.531-1.461-3.828-3.392-3.953-5.43v6.761c-0.162,2.294,1.132,4.507,3.953,6.135l21.296,12.295
					c5.882,3.396,16.157,2.97,22.95-0.951l17.734-10.239c3.51-2.027,5.399-4.59,5.597-7.064l0.004-0.051
					c0.018-0.254,0.018-0.506,0-0.757v-6.819C97.16,69.247,95.272,71.878,91.686,73.949z"/>
			</g>
			<g>
				<path style="fill:#72B5E8;" d="M25.764,66.725h-0.011v0.274C25.754,66.908,25.758,66.816,25.764,66.725z"/>
				<path style="fill:#2672AB;" d="M51.002,85.139L29.706,72.844c-2.531-1.461-3.828-3.392-3.953-5.43v6.761
					c-0.162,2.294,1.132,4.507,3.953,6.135l21.296,12.295V85.139z"/>
			</g>
			<path style="fill:#D1EBFF;" d="M91.686,73.016L73.951,83.255c-6.792,3.922-17.067,4.348-22.95,0.951L29.706,71.911
				c-2.477-1.43-3.766-3.312-3.937-5.302c-0.206,2.329,1.075,4.583,3.937,6.235l21.296,12.295c5.882,3.396,16.157,2.97,22.95-0.951
				l17.734-10.239c3.932-2.27,5.82-5.212,5.585-7.948C97.052,68.459,95.173,71.002,91.686,73.016z"/>
		</g>
		<g>
			<path style="fill:#72B5E8;" d="M51.002,74.563L29.706,62.268c-5.882-3.396-5.145-9.328,1.648-13.25l17.734-10.239
				c6.792-3.922,17.067-4.348,22.95-0.951l21.296,12.295c5.882,3.396,5.145,9.328-1.648,13.25L73.951,73.612
				C67.159,77.533,56.884,77.959,51.002,74.563z"/>
			<g>
				<path style="fill:#72B5E8;" d="M25.764,56.148h-0.011v0.274C25.754,56.331,25.758,56.24,25.764,56.148z"/>
				<path style="fill:#2672AB;" d="M91.686,63.373L73.951,73.612c-6.792,3.921-17.067,4.347-22.95,0.951L29.706,62.268
					c-2.531-1.461-3.828-3.392-3.953-5.43v6.761c-0.162,2.294,1.132,4.507,3.953,6.136l21.296,12.295
					c5.882,3.396,16.157,2.97,22.95-0.951l17.734-10.239c3.51-2.027,5.399-4.59,5.597-7.064l0.004-0.051
					c0.018-0.254,0.018-0.506,0-0.757v-6.819C97.16,58.671,95.272,61.302,91.686,63.373z"/>
			</g>
			<g>
				<path style="fill:#72B5E8;" d="M25.764,56.148h-0.011v0.274C25.754,56.331,25.758,56.24,25.764,56.148z"/>
				<path style="fill:#2672AB;" d="M51.002,74.563L29.706,62.268c-2.531-1.461-3.828-3.392-3.953-5.43v6.761
					c-0.162,2.294,1.132,4.507,3.953,6.136l21.296,12.295V74.563z"/>
			</g>
			<path style="fill:#D1EBFF;" d="M91.686,62.439L73.951,72.678c-6.792,3.922-17.067,4.348-22.95,0.951L29.706,61.335
				c-2.477-1.43-3.766-3.311-3.937-5.302c-0.206,2.329,1.075,4.583,3.937,6.235l21.296,12.295c5.882,3.396,16.157,2.97,22.95-0.951
				l17.734-10.239c3.932-2.27,5.82-5.213,5.585-7.948C97.052,57.883,95.173,60.426,91.686,62.439z"/>
		</g>
		<g>
			<path style="fill:#72B5E8;" d="M51.002,64.028L29.706,51.733c-5.882-3.396-5.145-9.328,1.648-13.25l17.734-10.239
				c6.792-3.921,17.067-4.347,22.95-0.951l21.296,12.295c5.882,3.396,5.145,9.328-1.648,13.25L73.951,63.076
				C67.159,66.998,56.884,67.424,51.002,64.028z"/>
			<g>
				<path style="fill:#72B5E8;" d="M25.764,45.613h-0.011v0.274C25.754,45.796,25.758,45.705,25.764,45.613z"/>
				<path style="fill:#2672AB;" d="M91.686,52.838L73.951,63.076c-6.792,3.922-17.067,4.348-22.95,0.951L29.706,51.733
					c-2.531-1.461-3.828-3.392-3.953-5.43v6.761c-0.162,2.294,1.132,4.507,3.953,6.135l21.296,12.295
					c5.882,3.396,16.157,2.97,22.95-0.951l17.734-10.239c3.51-2.027,5.399-4.59,5.597-7.064l0.004-0.051
					c0.018-0.254,0.018-0.506,0-0.757v-6.819C97.16,48.136,95.272,50.767,91.686,52.838z"/>
			</g>
			<g>
				<path style="fill:#72B5E8;" d="M25.764,45.613h-0.011v0.274C25.754,45.796,25.758,45.705,25.764,45.613z"/>
				<path style="fill:#2672AB;" d="M51.002,64.028L29.706,51.733c-2.531-1.461-3.828-3.392-3.953-5.43v6.761
					c-0.162,2.294,1.132,4.507,3.953,6.135l21.296,12.295V64.028z"/>
			</g>
			<path style="fill:#D1EBFF;" d="M91.686,51.904L73.951,62.143c-6.792,3.922-17.067,4.347-22.95,0.951L29.706,50.8
				c-2.477-1.43-3.766-3.312-3.937-5.302c-0.206,2.329,1.075,4.583,3.937,6.235l21.296,12.295c5.882,3.396,16.157,2.97,22.95-0.951
				l17.734-10.239c3.932-2.27,5.82-5.212,5.585-7.948C97.052,47.348,95.173,49.891,91.686,51.904z"/>
		</g>
		<g>
			<path style="fill:#3ECFCD;" d="M90.907,138.137l-21.296-12.295c-5.882-3.396-5.145-9.328,1.648-13.25l17.734-10.239
				c6.792-3.922,17.067-4.347,22.95-0.951l21.295,12.295c5.882,3.396,5.145,9.328-1.648,13.25l-17.734,10.239
				C107.064,141.107,96.789,141.533,90.907,138.137z"/>
			<g>
				<path style="fill:#0BA19F;" d="M65.669,119.722h-0.011v0.274C65.66,119.905,65.663,119.813,65.669,119.722z"/>
				<path style="fill:#0BA19F;" d="M131.591,126.947l-17.734,10.239c-6.792,3.922-17.067,4.348-22.95,0.951l-21.296-12.295
					c-2.531-1.461-3.828-3.392-3.953-5.43v6.761c-0.162,2.294,1.132,4.506,3.953,6.135l21.296,12.295
					c5.882,3.396,16.157,2.97,22.95-0.951l17.734-10.239c3.511-2.027,5.399-4.59,5.597-7.064l0.004-0.051
					c0.018-0.254,0.018-0.506,0-0.757v-6.819C137.065,122.245,135.178,124.875,131.591,126.947z"/>
			</g>
			<g>
				<path style="fill:#72B5E8;" d="M65.669,119.722h-0.011v0.274C65.66,119.905,65.663,119.813,65.669,119.722z"/>
				<path style="fill:#0BA19F;" d="M90.907,138.137l-21.296-12.295c-2.531-1.461-3.828-3.392-3.953-5.43v6.761
					c-0.162,2.294,1.132,4.506,3.953,6.135l21.296,12.295V138.137z"/>
			</g>
			<path style="fill:#D1EBFF;" d="M131.591,126.013l-17.734,10.239c-6.792,3.922-17.067,4.348-22.95,0.951l-21.296-12.295
				c-2.477-1.43-3.766-3.312-3.937-5.301c-0.207,2.329,1.075,4.582,3.937,6.235l21.296,12.295c5.882,3.396,16.157,2.97,22.95-0.951
				l17.734-10.239c3.932-2.27,5.82-5.213,5.585-7.948C136.957,121.457,135.078,124,131.591,126.013z"/>
		</g>
		<g>
			<path style="fill:#3ECFCD;" d="M90.907,127.353l-21.296-12.295c-5.882-3.396-5.145-9.328,1.648-13.25l17.734-10.239
				c6.792-3.922,17.067-4.347,22.95-0.951l21.295,12.295c5.882,3.396,5.145,9.328-1.648,13.25l-17.734,10.239
				C107.064,130.323,96.789,130.749,90.907,127.353z"/>
			<g>
				<path style="fill:#72B5E8;" d="M65.669,108.938h-0.011v0.274C65.66,109.121,65.663,109.03,65.669,108.938z"/>
				<path style="fill:#0BA19F;" d="M131.591,116.162l-17.734,10.239c-6.792,3.922-17.067,4.348-22.95,0.951l-21.296-12.295
					c-2.531-1.461-3.828-3.392-3.953-5.43v6.761c-0.162,2.294,1.132,4.506,3.953,6.135l21.296,12.295
					c5.882,3.396,16.157,2.97,22.95-0.951l17.734-10.239c3.511-2.027,5.399-4.59,5.597-7.064l0.004-0.051
					c0.018-0.254,0.018-0.506,0-0.757v-6.819C137.065,111.461,135.178,114.091,131.591,116.162z"/>
			</g>
			<g>
				<path style="fill:#72B5E8;" d="M65.669,108.938h-0.011v0.274C65.66,109.121,65.663,109.03,65.669,108.938z"/>
				<path style="fill:#0BA19F;" d="M90.907,127.353l-21.296-12.295c-2.531-1.461-3.828-3.392-3.953-5.43v6.761
					c-0.162,2.294,1.132,4.506,3.953,6.135l21.296,12.295V127.353z"/>
			</g>
			<path style="fill:#D1EBFF;" d="M131.591,115.229l-17.734,10.239c-6.792,3.922-17.067,4.348-22.95,0.951l-21.296-12.295
				c-2.477-1.43-3.766-3.312-3.937-5.302c-0.207,2.329,1.075,4.583,3.937,6.235l21.296,12.295c5.882,3.396,16.157,2.97,22.95-0.951
				l17.734-10.239c3.932-2.27,5.82-5.212,5.585-7.948C136.957,110.673,135.078,113.216,131.591,115.229z"/>
		</g>
		<g>
			<path style="fill:#3ECFCD;" d="M90.907,116.569l-21.296-12.295c-5.882-3.396-5.145-9.329,1.648-13.25l17.734-10.239
				c6.792-3.922,17.067-4.348,22.95-0.951l21.295,12.295c5.882,3.396,5.145,9.328-1.648,13.25l-17.734,10.239
				C107.064,119.539,96.789,119.965,90.907,116.569z"/>
			<g>
				<path style="fill:#72B5E8;" d="M65.669,98.154h-0.011v0.274C65.66,98.337,65.663,98.246,65.669,98.154z"/>
				<path style="fill:#0BA19F;" d="M131.591,105.379l-17.734,10.239c-6.792,3.922-17.067,4.347-22.95,0.951l-21.296-12.295
					c-2.531-1.461-3.828-3.392-3.953-5.43v6.761c-0.162,2.294,1.132,4.507,3.953,6.136l21.296,12.295
					c5.882,3.396,16.157,2.97,22.95-0.951l17.734-10.239c3.511-2.027,5.399-4.59,5.597-7.064l0.004-0.051
					c0.018-0.254,0.018-0.506,0-0.757v-6.819C137.065,100.677,135.178,103.308,131.591,105.379z"/>
			</g>
			<g>
				<path style="fill:#72B5E8;" d="M65.669,98.154h-0.011v0.274C65.66,98.337,65.663,98.246,65.669,98.154z"/>
				<path style="fill:#0BA19F;" d="M90.907,116.569l-21.296-12.295c-2.531-1.461-3.828-3.392-3.953-5.43v6.761
					c-0.162,2.294,1.132,4.507,3.953,6.136l21.296,12.295V116.569z"/>
			</g>
			<path style="fill:#D1EBFF;" d="M131.591,104.445l-17.734,10.239c-6.792,3.921-17.067,4.347-22.95,0.951l-21.296-12.295
				c-2.477-1.43-3.766-3.312-3.937-5.302c-0.207,2.329,1.075,4.583,3.937,6.235l21.296,12.295c5.882,3.396,16.157,2.97,22.95-0.951
				l17.734-10.239c3.932-2.27,5.82-5.212,5.585-7.948C136.957,99.889,135.078,102.432,131.591,104.445z"/>
			<g>
				<path style="fill:#D1EBFF;" d="M98.025,85.685l1.85,13.482l23.35,1.067l0.002,0.011c-0.099-0.424-0.417-0.834-0.982-1.16
					l-22.23-12.834c-0.565-0.326-1.274-0.512-2.008-0.569L98.025,85.685z"/>
				<path style="fill:#D1EBFF;" d="M123.232,100.252H98.034V96.11l-16.742-0.764c-0.004-0.014-0.005-0.012-0.007-0.026h16.722
					v-9.638c-1.022-0.071-2.135,0.109-2.916,0.56l-13.04,7.529c-1.356,0.783-1.349,2.056,0.015,2.843l22.23,12.834
					c1.364,0.788,3.569,0.791,4.925,0.009l13.04-7.529C123.041,101.478,123.355,100.842,123.232,100.252z M106.492,109.895
					l-1.324-9.652h1.342v9.656C106.486,109.898,106.515,109.897,106.492,109.895z"/>
			</g>
		</g>
		<g>
			<path style="fill:#72B5E8;" d="M44.868,162.027l-21.295-12.295c-5.882-3.396-5.145-9.328,1.648-13.25l17.734-10.239
				c6.792-3.922,17.067-4.347,22.95-0.951L87.2,137.587c5.882,3.396,5.145,9.329-1.648,13.25l-17.734,10.239
				C61.025,164.997,50.75,165.423,44.868,162.027z"/>
			<g>
				<path style="fill:#72B5E8;" d="M19.63,143.612h-0.011v0.275C19.621,143.795,19.624,143.704,19.63,143.612z"/>
				<path style="fill:#2672AB;" d="M85.552,150.837l-17.734,10.239c-6.792,3.922-17.067,4.348-22.95,0.951l-21.295-12.295
					c-2.531-1.461-3.828-3.392-3.953-5.43v6.761c-0.162,2.294,1.132,4.506,3.953,6.135l21.295,12.295
					c5.882,3.396,16.157,2.97,22.95-0.951l17.734-10.239c3.51-2.027,5.399-4.59,5.597-7.064l0.004-0.051
					c0.018-0.254,0.018-0.506,0-0.757v-6.819C91.026,146.135,89.139,148.766,85.552,150.837z"/>
			</g>
			<g>
				<path style="fill:#72B5E8;" d="M19.63,143.612h-0.011v0.275C19.621,143.795,19.624,143.704,19.63,143.612z"/>
				<path style="fill:#2672AB;" d="M44.868,162.027l-21.295-12.295c-2.531-1.461-3.828-3.392-3.953-5.43v6.761
					c-0.162,2.294,1.132,4.506,3.953,6.135l21.295,12.295V162.027z"/>
			</g>
			<path style="fill:#D1EBFF;" d="M85.552,149.904l-17.734,10.239c-6.792,3.922-17.067,4.348-22.95,0.951l-21.295-12.295
				c-2.477-1.43-3.766-3.311-3.937-5.302c-0.207,2.329,1.075,4.583,3.937,6.235l21.295,12.295c5.882,3.396,16.157,2.97,22.95-0.951
				l17.734-10.239c3.932-2.27,5.82-5.212,5.585-7.948C90.919,145.347,89.04,147.89,85.552,149.904z"/>
			<path style="fill:#D1EBFF;" d="M68.261,138.432c-0.022-4.085-5.776-7.407-12.851-7.42c-7.075-0.013-12.793,3.288-12.771,7.373
				c0.02,3.738,4.851,6.829,11.091,7.338v2.07c-1.183,0.181-2.031,0.797-2.027,1.538v7.067c0.005,0.885,1.27,1.607,2.804,1.609
				h2.099c1.533,0.003,2.752-0.711,2.747-1.595v-7.068c-0.004-0.741-0.908-1.361-2.094-1.546v-2.07
				C63.495,145.244,68.281,142.17,68.261,138.432z M55.477,143.281c-4.661-0.008-8.451-2.197-8.466-4.887
				c-0.014-2.691,3.752-4.866,8.413-4.857c4.661,0.008,8.451,2.197,8.465,4.887C63.904,141.115,60.137,143.29,55.477,143.281z"/>
		</g>
		<g>
			<path style="fill:#72B5E8;" d="M44.868,151.762l-21.295-12.295c-5.882-3.396-5.145-9.328,1.648-13.25l17.734-10.239
				c6.792-3.922,17.067-4.347,22.95-0.951L87.2,127.322c5.882,3.396,5.145,9.328-1.648,13.25L67.818,150.81
				C61.025,154.732,50.75,155.158,44.868,151.762z"/>
			<g>
				<path style="fill:#72B5E8;" d="M19.63,133.347h-0.011v0.275C19.621,133.53,19.624,133.439,19.63,133.347z"/>
				<path style="fill:#2672AB;" d="M85.552,140.572L67.818,150.81c-6.792,3.922-17.067,4.348-22.95,0.951l-21.295-12.295
					c-2.531-1.461-3.828-3.392-3.953-5.43v6.761c-0.162,2.294,1.132,4.506,3.953,6.135l21.295,12.295
					c5.882,3.396,16.157,2.97,22.95-0.951l17.734-10.239c3.51-2.027,5.399-4.59,5.597-7.064l0.004-0.051
					c0.018-0.254,0.018-0.506,0-0.757v-6.819C91.026,135.87,89.139,138.5,85.552,140.572z"/>
			</g>
			<g>
				<path style="fill:#72B5E8;" d="M19.63,133.347h-0.011v0.275C19.621,133.53,19.624,133.439,19.63,133.347z"/>
				<path style="fill:#2672AB;" d="M44.868,151.762l-21.295-12.295c-2.531-1.461-3.828-3.392-3.953-5.43v6.761
					c-0.162,2.294,1.132,4.506,3.953,6.135l21.295,12.295V151.762z"/>
			</g>
			<path style="fill:#D1EBFF;" d="M85.552,139.638l-17.734,10.239c-6.792,3.922-17.067,4.348-22.95,0.951l-21.295-12.295
				c-2.477-1.43-3.766-3.312-3.937-5.302c-0.207,2.329,1.075,4.583,3.937,6.235l21.295,12.295c5.882,3.396,16.157,2.97,22.95-0.951
				l17.734-10.239c3.932-2.27,5.82-5.213,5.585-7.948C90.919,135.082,89.04,137.625,85.552,139.638z"/>
			<path style="fill:#D1EBFF;" d="M68.261,128.167c-0.022-4.085-5.776-7.407-12.851-7.419c-7.075-0.013-12.793,3.288-12.771,7.373
				c0.02,3.738,4.851,6.829,11.091,7.338v2.07c-1.183,0.181-2.031,0.797-2.027,1.538v7.068c0.005,0.885,1.27,1.607,2.804,1.609
				h2.099c1.533,0.003,2.752-0.711,2.747-1.595v-7.068c-0.004-0.741-0.908-1.36-2.094-1.546v-2.07
				C63.495,134.979,68.281,131.905,68.261,128.167z M55.477,133.016c-4.661-0.008-8.451-2.197-8.466-4.887
				c-0.014-2.691,3.752-4.866,8.413-4.857c4.661,0.008,8.451,2.196,8.465,4.887C63.904,130.85,60.137,133.024,55.477,133.016z"/>
		</g>
		<polygon style="fill:#D1EBFF;" points="37.415,45.846 43.314,49.252 54.002,43.081 48.103,39.675 		"/>
		<polygon style="fill:#D1EBFF;" points="45.103,50.285 51.003,53.691 69.734,42.877 63.834,39.471 		"/>
		<polygon style="fill:#D1EBFF;" points="79.567,39.266 52.792,54.724 58.691,58.13 85.466,42.672 		"/>
	</g>
</g>
</svg>
