<?xml version="1.0" encoding="utf-8"?>
<!-- Generator: Adobe Illustrator 24.3.0, SVG Export Plug-In . SVG Version: 6.00 Build 0)  -->
<svg version="1.0" id="katman_1" xmlns="http://www.w3.org/2000/svg" xmlns:xlink="http://www.w3.org/1999/xlink" x="0px" y="0px"
	 viewBox="0 0 608 445" style="enable-background:new 0 0 608 445;" xml:space="preserve">
<style type="text/css">
	.st0{fill:#020A47;}
</style>
<g>
	<path class="st0" d="M198.25,199.81c-2.61,0-4.75-0.95-6.65-2.61c-1.66-1.66-2.61-3.8-2.61-6.18c0-2.61,0.95-4.51,2.61-6.18
		c1.9-1.66,4.04-2.61,6.65-2.61c2.61,0,4.75,0.95,6.41,2.61c1.66,1.66,2.61,3.56,2.61,6.18c0,2.38-0.95,4.51-2.61,6.18
		C202.76,198.86,200.62,199.81,198.25,199.81z M189.93,253.25v-46.32h16.15v46.32H189.93z M217.25,253.25v-46.32h15.91l0.24,5.7
		c1.19-2.38,2.85-4.04,5.23-5.23s4.99-1.9,8.08-1.9c5.23,0,9.26,1.66,11.88,4.99c2.85,3.33,4.04,8.08,4.04,14.49v28.27h-16.15
		v-25.18c0-5.46-2.14-8.08-6.18-8.08c-2.14,0-3.8,0.71-5.23,2.38c-1.19,1.43-1.66,3.56-1.66,6.41v24.47H217.25z M278.05,253.25V220
		h-7.36v-13.06h7.36v-4.51c0-7.13,1.66-12.59,5.23-16.39s8.55-5.94,14.96-5.94c1.9,0,3.56,0.24,5.23,0.48
		c1.66,0.24,3.09,0.71,4.28,1.19l-1.19,13.3c-0.71-0.24-1.43-0.48-2.38-0.71c-0.95-0.24-1.66-0.24-2.61-0.24
		c-2.61,0-4.51,0.71-5.7,2.14c-1.19,1.43-1.9,3.8-1.9,7.13v3.33h10.93V220h-10.93v33.25H278.05z M312.26,253.25v-72.68h16.15v72.68
		H312.26z M354.78,254.68c-4.99,0-9.03-1.66-11.64-4.75c-2.61-3.33-4.04-8.08-4.04-14.25v-28.5h16.39v25.18
		c0,2.85,0.48,4.75,1.43,6.18c0.95,1.43,2.61,1.9,4.75,1.9c2.14,0,3.8-0.71,4.99-2.14c1.19-1.66,1.9-3.8,1.9-6.65v-24.7h16.15v46.32
		h-15.91l-0.48-5.7c-1.19,2.38-3.09,4.04-5.46,5.23C360.71,253.97,357.86,254.68,354.78,254.68z M391.83,253.25l16.86-23.75
		l-15.91-22.33h18.05l7.6,12.59l7.36-12.59h17.34l-15.91,22.57l16.86,23.75H425.8l-8.55-14.01l-8.08,13.78H391.83z M472.59,254.68
		c-4.04,0-7.84-0.95-11.16-3.09c-3.33-2.14-5.7-4.75-7.6-8.55c-1.9-3.56-2.85-7.84-2.85-12.35s0.95-8.55,2.85-12.11
		c2.14-3.56,4.75-6.41,8.08-8.55c3.33-2.14,7.13-3.33,11.4-3.33c3.33,0,6.41,0.95,9.26,2.61s5.23,4.04,6.89,7.13v-35.87h7.6v72.68
		h-7.36l-0.24-8.08c-1.9,3.09-4.28,5.46-7.13,7.13C479.72,253.97,476.39,254.68,472.59,254.68z M474.49,247.79
		c3.09,0,5.94-0.71,8.08-2.14c2.38-1.43,4.28-3.33,5.46-5.94c1.43-2.61,2.14-5.46,2.14-8.79s-0.71-6.41-2.14-8.79
		c-1.43-2.61-3.09-4.51-5.46-5.94s-4.99-2.14-8.08-2.14s-5.7,0.71-8.08,2.14s-4.28,3.33-5.46,5.94c-1.43,2.61-1.9,5.46-1.9,8.79
		s0.71,6.41,1.9,8.79c1.43,2.61,3.33,4.51,5.46,5.94C468.79,247.08,471.4,247.79,474.49,247.79z M537.43,254.68
		c-3.56,0-6.65-0.95-9.5-2.61c-2.85-1.66-4.99-4.04-6.65-7.13l-0.24,8.08h-7.36v-72.45h7.6v35.87c1.9-3.09,4.28-5.46,7.13-7.13
		s6.18-2.61,9.98-2.61c4.28,0,7.84,0.95,11.16,3.09c3.33,2.14,5.7,4.75,7.6,8.55c1.9,3.56,2.85,7.6,2.85,12.35
		c0,4.51-0.95,8.55-3.09,12.11c-1.9,3.56-4.75,6.41-8.08,8.55C545.27,253.73,541.47,254.68,537.43,254.68z M536.25,247.79
		c3.09,0,5.94-0.71,8.08-2.14c2.38-1.43,4.28-3.33,5.46-5.94c1.43-2.61,2.14-5.46,2.14-8.79s-0.71-6.41-2.14-8.79
		c-1.43-2.61-3.09-4.51-5.46-5.94c-2.38-1.43-4.99-2.14-8.08-2.14c-3.09,0-5.7,0.71-8.08,2.14s-4.28,3.33-5.46,5.94
		c-1.43,2.61-1.9,5.46-1.9,8.79s0.71,6.41,1.9,8.79c1.43,2.61,3.33,4.51,5.46,5.94C530.55,247.08,533.16,247.79,536.25,247.79z"/>
	<path class="st0" d="M70.84,231.69l0.18,0.05l43.31,13.26c0.36,0.1,0.7,0.28,1,0.51c0.3,0.24,0.54,0.53,0.72,0.86
		c0.18,0.33,0.3,0.69,0.34,1.07c0.03,0.3,0.02,0.6-0.04,0.9l-0.05,0.22l-7.26,23.23c-0.26,0.71-0.75,1.3-1.41,1.68
		c-0.59,0.34-1.28,0.48-1.96,0.4l-0.2-0.03l-43.31-13.38c-0.72-0.22-1.33-0.72-1.69-1.38c-0.33-0.61-0.42-1.31-0.28-1.97l0.05-0.2
		l7.21-23.18c0.21-0.73,0.71-1.35,1.38-1.72C69.45,231.64,70.16,231.54,70.84,231.69z M143.96,242.29l-0.1,0.1l-28.92,26.78
		c-1.06,1.06-1.61,0.71-1.27-0.67l0.04-0.14l6.03-19.4c0.27-0.8,0.74-1.52,1.36-2.1c0.55-0.51,1.21-0.89,1.93-1.11l0.27-0.08
		l19.88-4.52c1.41-0.51,1.74,0.06,0.88,1.04L143.96,242.29z M49.33,212.09l0.09,0.1l13.85,14.94c0.54,0.66,0.93,1.43,1.11,2.26
		c0.17,0.74,0.18,1.5,0.04,2.24l-0.06,0.28l-6.03,19.4c-0.37,1.45-1.04,1.5-1.34,0.15l-0.03-0.15l-8.78-38.44
		C47.76,211.43,48.41,211.08,49.33,212.09z M137.63,187.36c0.59,0.35,1.03,0.91,1.24,1.56l0.05,0.18l10.14,44
		c0.11,0.36,0.14,0.74,0.09,1.11c-0.05,0.37-0.17,0.73-0.36,1.05c-0.19,0.32-0.45,0.6-0.76,0.82c-0.25,0.17-0.52,0.3-0.8,0.39
		l-0.22,0.05l-23.85,5.47c-0.73,0.18-1.5,0.07-2.14-0.32c-0.59-0.35-1.03-0.91-1.24-1.56l-0.05-0.18l-10.12-44
		c-0.18-0.72-0.07-1.49,0.31-2.13c0.35-0.59,0.9-1.03,1.54-1.24l0.18-0.05l23.84-5.47C136.22,186.86,136.99,186.98,137.63,187.36z
		 M106.53,197.65l0.04,0.15l9.59,41.53c0.39,1.51-0.49,2.32-1.92,2l-0.14-0.04l-40.84-12.57c-1.45-0.4-1.76-1.56-0.79-2.62
		l0.11-0.11l31.25-29.03C104.89,195.92,106.08,196.27,106.53,197.65z M84.07,171c0.37,0.01,0.74,0.09,1.08,0.24
		c0.27,0.12,0.52,0.29,0.74,0.48l0.16,0.16l16.56,17.93c0.5,0.54,0.77,1.26,0.74,1.99c-0.02,0.67-0.29,1.32-0.75,1.81l-0.13,0.13
		L69.3,224.5c-0.55,0.51-1.27,0.77-2.02,0.75c-0.68-0.02-1.33-0.29-1.83-0.76l-0.13-0.13l-16.59-17.94
		c-0.5-0.54-0.76-1.26-0.73-1.99c0.02-0.67,0.29-1.31,0.74-1.81l0.13-0.13l33.17-30.7c0.27-0.26,0.58-0.46,0.93-0.6
		S83.69,170.99,84.07,171z M92.46,171.75l0.14,0.04l37.83,11.58c1.46,0.39,1.51,1.04,0.19,1.46l-0.14,0.04l-19.88,4.51
		c-0.83,0.17-1.69,0.14-2.51-0.09c-0.73-0.2-1.4-0.56-1.98-1.05l-0.21-0.19l-13.85-14.9C90.85,171.96,91.08,171.41,92.46,171.75z"/>
</g>
</svg>
